<svg width="44" height="41" viewBox="0 0 44 41" fill="none" xmlns="http://www.w3.org/2000/svg">
    <defs>
        <linearGradient id="paint0_linear_770_1241" x1="43.2412" y1="22.1209" x2="5.48264" y2="22.1209" gradientUnits="userSpaceOnUse">
            <stop stop-color="#FD484F"/>
            <stop offset="1" stop-color="#EE2A7B"/>
        </linearGradient>
    </defs>
    <path d="M19.5855 1.00228C30.029 0.842734 38.5529 9.06239 38.7552 19.5052C38.7848 21.0383 38.6316 22.5308 38.3158 23.9621C37.7812 26.3858 37.4634 28.8523 37.4634 31.3344V36.1321C37.4634 36.8671 36.8675 37.4631 36.1324 37.4631H31.3347C28.8527 37.4631 26.3862 37.7809 23.9624 38.3155C22.5311 38.6312 21.0386 38.7845 19.5056 38.7548C9.06296 38.5526 0.843305 30.029 1.00249 19.5856C1.158 9.39213 9.39206 1.15789 19.5855 1.00228Z" stroke="#EE2A7B" stroke-width="0.260756"/>
<path d="M24.0679 3.24398C34.5114 3.08443 43.0353 11.3041 43.2376 21.7469C43.2672 23.2799 43.114 24.7725 42.7982 26.2038C42.2636 28.6275 41.9458 31.094 41.9458 33.5761V38.3738C41.9458 39.1088 41.35 39.7048 40.6148 39.7048H35.8172C33.3352 39.7048 30.8686 40.0226 28.4449 40.5572C27.0135 40.8729 25.5211 41.0262 23.988 40.9965C13.5454 40.7943 5.32573 32.2707 5.48491 21.8273C5.64043 11.6338 13.8745 3.39959 24.0679 3.24398Z" fill="url(#paint0_linear_770_1241)"/>
<path d="M23.2544 23.2656C24.3414 24.7975 26.6287 24.5286 27.7494 23.2656L29.9784 21.0242C31.2381 19.6481 31.2829 17.8707 29.9784 16.5416C28.7053 15.2449 26.7688 15.2449 25.4957 16.5416L23.2544 18.7829" stroke="white" stroke-width="0.521513" stroke-linecap="round" stroke-linejoin="round"/>
<path d="M25.4962 22.223C24.4091 20.691 22.1342 20.8816 21.0135 22.1446L18.7722 24.3579C17.5125 25.7341 17.4677 27.5395 18.7722 28.8686C20.0452 30.1652 21.9818 30.1652 23.2548 28.8686L25.4962 26.6272" stroke="white" stroke-width="0.521513" stroke-linecap="round" stroke-linejoin="round"/>
</svg>
