<svg width="127" height="56" viewBox="0 0 127 56" fill="none" xmlns="http://www.w3.org/2000/svg">
    <defs>
        <linearGradient id="paint0_linear_1154_144" x1="94.0091" y1="10.0623" x2="94.0091" y2="17.2301" gradientUnits="userSpaceOnUse">
            <stop stop-color="#FF057C"/>
            <stop offset="1" stop-color="#EC1C24"/>
        </linearGradient>
        <linearGradient id="paint1_linear_1154_144" x1="92.5376" y1="10.074" x2="92.5376" y2="17.2305" gradientUnits="userSpaceOnUse">
            <stop stop-color="#FF057C"/>
            <stop offset="1" stop-color="#EC1C24"/>
        </linearGradient>
        <linearGradient id="paint2_linear_1154_144" x1="109.516" y1="0" x2="109.516" y2="9.52188" gradientUnits="userSpaceOnUse">
            <stop stop-color="#FF057C"/>
            <stop offset="1" stop-color="#EC1C24"/>
        </linearGradient>
        <linearGradient id="paint3_linear_1154_144" x1="107.563" y1="0.0158691" x2="107.563" y2="9.5226" gradientUnits="userSpaceOnUse">
            <stop stop-color="#FF057C"/>
            <stop offset="1" stop-color="#EC1C24"/>
        </linearGradient>
        <linearGradient id="paint4_linear_1154_144" x1="81.0262" y1="18.1243" x2="81.0262" y2="23.2258" gradientUnits="userSpaceOnUse">
            <stop stop-color="#FF057C"/>
            <stop offset="1" stop-color="#EC1C24"/>
        </linearGradient>
        <linearGradient id="paint5_linear_1154_144" x1="79.9768" y1="18.1279" x2="79.9768" y2="23.2268" gradientUnits="userSpaceOnUse">
            <stop stop-color="#FF057C"/>
            <stop offset="1" stop-color="#EC1C24"/>
        </linearGradient>
    </defs>
    <path d="M7.51214 21.2013C8.95619 21.2013 10.0239 21.5162 10.7152 22.146C11.4218 22.7759 11.7752 23.5978 11.7752 24.6117C11.7752 25.472 11.537 26.1325 11.0608 26.5934C10.5846 27.0389 9.90097 27.2617 9.00996 27.2617C8.73344 27.2617 8.55677 27.2386 8.47996 27.1925C8.40315 27.1311 8.36474 27.0159 8.36474 26.8469C8.36474 26.6933 8.34938 26.4935 8.31866 26.2478C8.30329 26.002 8.24953 25.7638 8.15735 25.5334C8.06518 25.303 7.91924 25.1109 7.71953 24.9573C7.51982 24.7883 7.2433 24.7038 6.88997 24.7038C6.39837 24.7038 5.96055 24.8575 5.57649 25.1647C5.19244 25.4566 5.00041 25.8407 5.00041 26.3169C5.00041 26.7317 5.15403 27.0696 5.46128 27.3308C5.78389 27.592 6.1833 27.8377 6.65953 28.0682C7.13576 28.2833 7.6504 28.506 8.20344 28.7364C8.77184 28.9669 9.29416 29.2741 9.77039 29.6582C10.2466 30.0269 10.6384 30.4954 10.9456 31.0638C11.2682 31.6169 11.4295 32.3235 11.4295 33.1838C11.4295 33.8597 11.3143 34.4973 11.0839 35.0964C10.8688 35.6802 10.5385 36.1948 10.093 36.6403C9.66285 37.0705 9.10981 37.4084 8.43387 37.6542C7.7733 37.9 6.9975 38.0229 6.10649 38.0229C5.33838 38.0229 4.62404 37.9384 3.96346 37.7694C3.31824 37.6005 2.74984 37.3931 2.25825 37.1473C1.78202 36.8861 1.40565 36.6096 1.12912 36.3177C0.852605 36.0105 0.714344 35.7339 0.714344 35.4881C0.714344 34.4742 0.768112 33.7445 0.875648 33.299C0.998546 32.8535 1.21362 32.6308 1.52086 32.6308C1.73593 32.6308 1.95869 32.7229 2.18912 32.9073C2.43492 33.0916 2.71144 33.299 3.01868 33.5295C3.32593 33.7599 3.67926 33.9673 4.07868 34.1516C4.49346 34.336 4.96969 34.4281 5.50736 34.4281C5.72244 34.4281 5.92983 34.4128 6.12954 34.3821C6.34461 34.336 6.52895 34.2668 6.68258 34.1747C6.85156 34.0825 6.98214 33.9596 7.07431 33.806C7.18185 33.6524 7.23562 33.468 7.23562 33.2529C7.23562 32.8689 7.08968 32.5616 6.79779 32.3312C6.50591 32.1008 6.13722 31.8934 5.69171 31.709C5.24621 31.5093 4.7623 31.3096 4.23998 31.1099C3.73303 30.8948 3.2568 30.6106 2.81129 30.2573C2.36579 29.8886 1.99709 29.4201 1.70521 28.8517C1.41333 28.2833 1.26739 27.5535 1.26739 26.6625C1.26739 25.664 1.45173 24.8191 1.82043 24.1278C2.20448 23.4365 2.68839 22.8757 3.27216 22.4456C3.87129 22.0001 4.53954 21.6852 5.27693 21.5008C6.02968 21.3011 6.77475 21.2013 7.51214 21.2013ZM21.2694 35.7647C21.2694 35.4267 21.2924 34.9889 21.3385 34.4512C21.4 33.8982 21.4537 33.3221 21.4998 32.7229C21.5613 32.1084 21.615 31.517 21.6611 30.9486C21.7226 30.3802 21.7533 29.904 21.7533 29.5199C21.7533 29.1205 21.6534 28.7672 21.4537 28.4599C21.2694 28.1373 20.9007 27.976 20.3477 27.976C19.81 27.976 19.3645 28.1066 19.0111 28.3677C18.6578 28.6289 18.3582 29.1051 18.1124 29.7964C17.882 30.4877 17.69 31.4402 17.5364 32.6538C17.3827 33.8674 17.2368 35.4267 17.0985 37.3316C17.0832 37.516 17.0448 37.6389 16.9833 37.7003C16.9219 37.7618 16.7913 37.7925 16.5916 37.7925H15.762C15.2858 37.7925 14.8941 37.7464 14.5868 37.6542C14.2949 37.5467 14.0568 37.4007 13.8725 37.2164C13.7035 37.032 13.5806 36.8093 13.5038 36.5481C13.4423 36.2716 13.4116 35.9567 13.4116 35.6034C13.4116 35.3729 13.4193 35.0503 13.4346 34.6355C13.4654 34.2054 13.5115 33.6216 13.5729 32.8842C13.6344 32.1315 13.7035 31.1867 13.7803 30.0499C13.8725 28.8977 13.98 27.4767 14.1029 25.7869C14.1183 25.4489 14.1567 25.2492 14.2181 25.1878C14.2642 25.1417 14.3871 25.1186 14.5868 25.1186H15.4855C15.9464 25.1186 16.3227 25.1724 16.6146 25.2799C16.9219 25.3875 17.1677 25.5334 17.352 25.7178C17.5364 25.8867 17.6669 26.0941 17.7438 26.3399C17.8206 26.5704 17.8666 26.8085 17.882 27.0543C18.3582 26.2401 18.9036 25.6794 19.5181 25.3721C20.1326 25.0495 20.9007 24.8882 21.8224 24.8882C22.4676 24.8882 23.0284 24.9573 23.5046 25.0956C23.9808 25.2338 24.3726 25.472 24.6798 25.8099C25.0024 26.1325 25.2405 26.5627 25.3941 27.1004C25.5478 27.6227 25.6246 28.2756 25.6246 29.059C25.6246 29.3048 25.6092 29.6582 25.5785 30.119C25.5478 30.5799 25.5094 31.0869 25.4633 31.6399C25.4172 32.1776 25.3634 32.746 25.302 33.3451C25.2559 33.9289 25.2098 34.4742 25.1637 34.9812C25.1176 35.4881 25.0792 35.9336 25.0485 36.3177C25.0178 36.7018 25.0024 36.9552 25.0024 37.0781C25.0024 37.4161 24.964 37.6235 24.8872 37.7003C24.8104 37.7618 24.6414 37.7925 24.3802 37.7925H23.6429C23.1513 37.7925 22.7518 37.7464 22.4446 37.6542C22.1374 37.562 21.8992 37.4315 21.7303 37.2625C21.5613 37.0935 21.4384 36.8861 21.3616 36.6403C21.3001 36.3792 21.2694 36.0873 21.2694 35.7647ZM33.0017 38.0229C32.3258 38.0229 31.6498 37.9384 30.9739 37.7694C30.3133 37.6005 29.7142 37.3086 29.1765 36.8938C28.6542 36.479 28.224 35.926 27.8861 35.2347C27.5481 34.5434 27.3791 33.6754 27.3791 32.6308C27.3791 32.2467 27.4098 31.7858 27.4713 31.2482C27.5327 30.7105 27.648 30.1574 27.8169 29.589C28.0013 29.0206 28.2471 28.4599 28.5543 27.9069C28.8769 27.3385 29.2917 26.8315 29.7987 26.386C30.3056 25.9405 30.9201 25.5795 31.6421 25.303C32.3642 25.0265 33.2245 24.8882 34.223 24.8882C35.0218 24.8882 35.6978 24.9804 36.2508 25.1647C36.8039 25.3491 37.2494 25.6025 37.5873 25.9251C37.9253 26.2324 38.1711 26.5934 38.3247 27.0082C38.4783 27.423 38.5552 27.8685 38.5552 28.3447C38.5552 29.0514 38.4092 29.6505 38.1173 30.1421C37.8408 30.6337 37.4721 31.0485 37.0112 31.3864C36.5657 31.709 36.0665 31.9625 35.5134 32.1469C34.9604 32.3312 34.415 32.4771 33.8773 32.5847C33.3397 32.6769 32.8404 32.7383 32.3795 32.769C31.934 32.7844 31.5884 32.7921 31.3426 32.7921C31.3426 33.084 31.381 33.3758 31.4578 33.6677C31.55 33.9442 31.6805 34.19 31.8495 34.4051C32.0185 34.6202 32.2413 34.7968 32.5178 34.9351C32.7943 35.0734 33.1323 35.1425 33.5317 35.1425C33.9311 35.1425 34.2384 35.081 34.4534 34.9581C34.6839 34.8199 34.8682 34.6739 35.0065 34.5203C35.1447 34.3513 35.26 34.2054 35.3521 34.0825C35.4597 33.9442 35.5979 33.8751 35.7669 33.8751C35.8437 33.8751 35.9743 33.8982 36.1586 33.9442C36.3584 33.975 36.5581 34.0518 36.7578 34.1747C36.9575 34.2976 37.1341 34.4666 37.2878 34.6816C37.4414 34.8967 37.5182 35.1732 37.5182 35.5112C37.5182 35.9567 37.3799 36.3407 37.1034 36.6634C36.8269 36.986 36.4659 37.2471 36.0204 37.4468C35.5902 37.6465 35.1063 37.7925 34.5687 37.8847C34.031 37.9768 33.5087 38.0229 33.0017 38.0229ZM33.4395 27.953C33.1016 27.953 32.8097 28.0528 32.5639 28.2525C32.3334 28.4369 32.1337 28.675 31.9648 28.9669C31.8111 29.2588 31.6882 29.5814 31.5961 29.9347C31.5192 30.288 31.4578 30.626 31.4117 30.9486C32.3642 30.9332 33.1323 30.7719 33.716 30.4647C34.3152 30.1574 34.6147 29.7196 34.6147 29.1512C34.6147 28.844 34.5149 28.5675 34.3152 28.3217C34.1308 28.0759 33.8389 27.953 33.4395 27.953ZM39.2517 34.9581C39.2517 33.5755 39.8738 32.4925 41.1182 31.709C42.3625 30.9256 44.1983 30.5031 46.6256 30.4416C46.6409 30.2727 46.6486 30.1344 46.6486 30.0269C46.664 29.904 46.6716 29.758 46.6716 29.589C46.6716 29.0975 46.5795 28.7057 46.3951 28.4138C46.2108 28.1219 45.8267 27.976 45.2429 27.976C44.9203 27.976 44.6592 28.0221 44.4595 28.1143C44.2598 28.2064 44.0985 28.337 43.9756 28.506C43.8527 28.6596 43.7528 28.8517 43.676 29.0821C43.5992 29.3125 43.5301 29.566 43.4686 29.8425C43.4379 29.9808 43.3688 30.073 43.2612 30.119C43.1537 30.1498 42.9847 30.1651 42.7543 30.1651C41.1873 30.1651 40.4038 29.5737 40.4038 28.3908C40.4038 27.9146 40.5114 27.4614 40.7264 27.0312C40.9569 26.6011 41.2872 26.2324 41.7173 25.9251C42.1628 25.6025 42.7159 25.3491 43.3764 25.1647C44.037 24.9804 44.8051 24.8882 45.6808 24.8882C47.386 24.8882 48.6226 25.2415 49.3908 25.9482C50.1589 26.6549 50.5429 27.6534 50.5429 28.9438C50.5429 29.1128 50.5199 29.4201 50.4738 29.8656C50.4431 30.2957 50.397 30.7566 50.3355 31.2482C50.2894 31.7244 50.2434 32.1776 50.1973 32.6077C50.1665 33.0379 50.1512 33.3374 50.1512 33.5064C50.1512 33.8905 50.2203 34.167 50.3586 34.336C50.4968 34.4896 50.6505 34.5971 50.8194 34.6586C51.0038 34.72 51.1651 34.7661 51.3034 34.7968C51.4416 34.8276 51.5107 34.9044 51.5107 35.0273C51.5107 35.3652 51.4647 35.7109 51.3725 36.0642C51.2803 36.4176 51.1267 36.7402 50.9116 37.032C50.7119 37.3239 50.4277 37.562 50.059 37.7464C49.7057 37.9307 49.2679 38.0229 48.7455 38.0229C48.0082 38.0229 47.4551 37.8462 47.0864 37.4929C46.7177 37.1396 46.4719 36.648 46.349 36.0181C45.9803 36.5558 45.4964 37.0244 44.8973 37.4238C44.3135 37.8232 43.5454 38.0229 42.593 38.0229C42.1321 38.0229 41.6943 37.9691 41.2795 37.8616C40.8801 37.7541 40.5267 37.5774 40.2195 37.3316C39.9276 37.0858 39.6895 36.7709 39.5051 36.3868C39.3362 35.9874 39.2517 35.5112 39.2517 34.9581ZM46.4182 32.3312C46.0187 32.3312 45.627 32.3619 45.2429 32.4234C44.8589 32.4848 44.5132 32.5847 44.206 32.7229C43.9141 32.8458 43.676 33.0148 43.4917 33.2299C43.3073 33.445 43.2151 33.7061 43.2151 34.0134C43.2151 34.3667 43.3227 34.6125 43.5377 34.7508C43.7682 34.889 44.014 34.9581 44.2751 34.9581C44.5209 34.9581 44.7667 34.9044 45.0125 34.7968C45.2583 34.6893 45.4734 34.528 45.6577 34.3129C45.8574 34.0825 46.0264 33.806 46.1647 33.4834C46.3029 33.1608 46.3874 32.7767 46.4182 32.3312ZM63.873 35.926C63.873 36.0028 63.8346 36.1564 63.7578 36.3868C63.6809 36.6173 63.558 36.8554 63.3891 37.1012C63.2201 37.347 63.005 37.562 62.7438 37.7464C62.498 37.9307 62.1985 38.0229 61.8452 38.0229C61.4304 38.0229 61.0156 37.8847 60.6008 37.6081C60.2014 37.3316 59.802 36.9552 59.4026 36.479C59.0031 36.0028 58.596 35.4421 58.1813 34.7968C57.7818 34.1363 57.3747 33.4219 56.96 32.6538C56.8985 33.468 56.8371 34.2668 56.7756 35.0503C56.7142 35.8338 56.6527 36.5942 56.5913 37.3316C56.5759 37.516 56.5375 37.6389 56.476 37.7003C56.4146 37.7618 56.284 37.7925 56.0843 37.7925H55.2547C54.7785 37.7925 54.3868 37.7464 54.0795 37.6542C53.7723 37.5467 53.5342 37.4007 53.3652 37.2164C53.1962 37.032 53.0733 36.8016 52.9965 36.5251C52.935 36.2332 52.9043 35.9029 52.9043 35.5342C52.9043 35.3499 52.912 35.1579 52.9274 34.9581C52.9427 34.7584 52.9658 34.4742 52.9965 34.1055C53.0272 33.7368 53.0656 33.2529 53.1117 32.6538C53.1732 32.0547 53.2423 31.2635 53.3191 30.2803C53.3959 29.2972 53.4804 28.0912 53.5726 26.6625C53.6801 25.2185 53.7953 23.4672 53.9182 21.4086C53.9336 21.0707 53.972 20.871 54.0334 20.8095C54.0795 20.7634 54.2024 20.7404 54.4021 20.7404H55.3008C55.7771 20.7404 56.1688 20.7942 56.476 20.9017C56.7833 21.0092 57.0291 21.1552 57.2134 21.3395C57.3978 21.5239 57.5207 21.7389 57.5821 21.9847C57.6589 22.2305 57.6973 22.484 57.6973 22.7452C57.6973 22.8988 57.682 23.1599 57.6513 23.5286C57.6359 23.882 57.6129 24.3198 57.5821 24.8421C57.5514 25.3491 57.5053 25.9251 57.4439 26.5704C57.3978 27.2156 57.3517 27.8915 57.3056 28.5982L60.9925 25.2338C61.1308 25.1109 61.2537 25.0265 61.3612 24.9804C61.4841 24.9343 61.5763 24.9112 61.6378 24.9112C61.8067 24.9112 61.9911 25.0188 62.1908 25.2338C62.3905 25.4489 62.5749 25.7024 62.7438 25.9943C62.9282 26.2708 63.0741 26.5627 63.1817 26.8699C63.3046 27.1618 63.366 27.3999 63.366 27.5843C63.366 28.0298 63.005 28.4983 62.283 28.9899C61.5763 29.4815 60.501 30.0345 59.0569 30.649C59.7021 31.3711 60.3166 32.0316 60.9004 32.6308C61.4841 33.2299 61.9911 33.7599 62.4212 34.2208C62.8667 34.6816 63.2201 35.058 63.4812 35.3499C63.7424 35.6418 63.873 35.8338 63.873 35.926ZM69.6154 27.2386C69.6154 27.5919 69.5924 28.0144 69.5463 28.506C69.5002 28.9822 69.4465 29.4661 69.385 29.9577C69.3389 30.434 69.2928 30.8872 69.2468 31.3173C69.2007 31.7321 69.1776 32.0547 69.1776 32.2851C69.1776 32.8689 69.3159 33.3067 69.5924 33.5986C69.8843 33.8751 70.2376 34.0134 70.6524 34.0134C71.3744 34.0134 71.9505 33.637 72.3807 32.8842C72.8108 32.1315 73.0796 31.1329 73.1872 29.8886L73.5559 25.5795C73.5712 25.4105 73.625 25.2953 73.7172 25.2338C73.8247 25.157 73.9399 25.1186 74.0628 25.1186H74.8924C75.215 25.1186 75.5145 25.1494 75.7911 25.2108C76.083 25.2569 76.3364 25.3567 76.5515 25.5104C76.7666 25.6486 76.9356 25.8407 77.0585 26.0865C77.1814 26.3322 77.2428 26.6472 77.2428 27.0312C77.2428 27.1849 77.2274 27.4767 77.1967 27.9069C77.1814 28.3217 77.1429 28.9285 77.0815 29.7273C77.0354 30.5108 76.9663 31.5093 76.8741 32.7229C76.7819 33.9212 76.6744 35.3883 76.5515 37.1242C76.4747 38.1381 76.2443 38.9754 75.8602 39.6359C75.4915 40.3119 75.023 40.8419 74.4546 41.2259C73.8862 41.6254 73.2486 41.9019 72.542 42.0555C71.8353 42.2091 71.1133 42.2859 70.3759 42.2859C69.5924 42.2859 68.8704 42.2168 68.2098 42.0785C67.5646 41.9403 67.0039 41.7483 66.5276 41.5025C66.0514 41.2567 65.675 40.9725 65.3985 40.6499C65.1374 40.3273 65.0068 39.9816 65.0068 39.6129C65.0068 39.321 65.0682 39.0675 65.1911 38.8525C65.3294 38.6374 65.506 38.4607 65.7211 38.3225C65.9362 38.1842 66.182 38.0767 66.4585 37.9999C66.7504 37.9384 67.05 37.9077 67.3572 37.9077C67.5108 37.9077 67.6184 37.9845 67.6798 38.1381C67.7566 38.2918 67.8642 38.4607 68.0024 38.6451C68.156 38.8448 68.3941 39.0215 68.7168 39.1751C69.0394 39.3287 69.5233 39.4055 70.1685 39.4055C70.7369 39.4055 71.1978 39.2673 71.5511 38.9907C71.9044 38.7142 72.1733 38.3609 72.3576 37.9307C72.5573 37.5006 72.6879 37.032 72.7493 36.5251C72.8108 36.0181 72.8415 35.5342 72.8415 35.0734C72.5957 35.5035 72.3192 35.8568 72.012 36.1334C71.7201 36.3945 71.4128 36.6019 71.0902 36.7555C70.7676 36.8938 70.445 36.986 70.1224 37.032C69.7998 37.0781 69.4925 37.1012 69.2007 37.1012C68.6323 37.1012 68.1099 37.0244 67.6337 36.8707C67.1729 36.7171 66.7734 36.4713 66.4355 36.1334C66.0975 35.78 65.8363 35.3268 65.652 34.7738C65.4676 34.2208 65.3755 33.5525 65.3755 32.769C65.3755 32.4771 65.3908 32.0931 65.4216 31.6169C65.4523 31.1253 65.4907 30.5799 65.5368 29.9808C65.5829 29.3663 65.6289 28.7057 65.675 27.999C65.7365 27.2924 65.7979 26.5704 65.8594 25.833C65.8901 25.3567 66.1052 25.1186 66.5046 25.1186H67.242C67.7336 25.1186 68.133 25.1647 68.4402 25.2569C68.7475 25.3491 68.9856 25.4873 69.1546 25.6717C69.3389 25.8407 69.4618 26.0634 69.5233 26.3399C69.5847 26.6011 69.6154 26.9006 69.6154 27.2386ZM86.8564 37.7925C85.9961 37.7925 85.3816 37.6235 85.0129 37.2855C84.6442 36.9476 84.4599 36.4636 84.4599 35.8338C84.4599 35.5265 84.4829 35.0042 84.529 34.2668C84.5751 33.5141 84.6365 32.6615 84.7133 31.709C84.7902 30.7566 84.867 29.7503 84.9438 28.6904C85.0206 27.6304 85.0974 26.6318 85.1742 25.6947C85.251 24.7576 85.3125 23.9357 85.3586 23.2291C85.4047 22.5224 85.4277 22.0385 85.4277 21.7773C85.4277 21.5469 85.5506 21.4317 85.7964 21.4317H87.0638C87.9241 21.4317 88.5155 21.6007 88.8381 21.9386C89.1761 22.2613 89.3451 22.7452 89.3451 23.3904C89.3451 23.4672 89.3374 23.5363 89.322 23.5978C89.322 23.6592 89.322 23.7283 89.322 23.8052L88.5616 34.5664H92.7094C92.8016 34.5664 92.8861 34.5971 92.9629 34.6586C93.0397 34.7047 93.0781 34.7815 93.0781 34.889L92.9859 36.2486C92.9552 36.7094 92.8246 37.0858 92.5942 37.3777C92.3791 37.6542 91.9259 37.7925 91.2346 37.7925H86.8564ZM96.9319 37.7925C96.4557 37.7925 96.0639 37.7464 95.7567 37.6542C95.4648 37.5467 95.2267 37.4007 95.0424 37.2164C94.8734 37.032 94.7505 36.8093 94.6737 36.5481C94.6122 36.2716 94.5815 35.9567 94.5815 35.6034C94.5815 35.3729 94.5892 35.0503 94.6045 34.6355C94.6353 34.2054 94.6813 33.6216 94.7428 32.8842C94.8042 32.1315 94.8734 31.1867 94.9502 30.0499C95.0424 28.8977 95.1499 27.4767 95.2728 25.7869C95.2882 25.4489 95.3266 25.2492 95.388 25.1878C95.4341 25.1417 95.557 25.1186 95.7567 25.1186H96.6554C97.1316 25.1186 97.5157 25.1647 97.8076 25.2569C98.1148 25.3491 98.3529 25.4873 98.5219 25.6717C98.7063 25.856 98.8292 26.0788 98.8906 26.3399C98.9674 26.6011 99.0058 26.893 99.0058 27.2156C99.0058 27.446 98.9905 27.7917 98.9597 28.2525C98.929 28.7134 98.8829 29.3432 98.8215 30.1421C98.7754 30.9256 98.7063 31.9087 98.6141 33.0916C98.5219 34.2592 98.4067 35.6725 98.2684 37.3316C98.2531 37.516 98.2147 37.6389 98.1532 37.7003C98.0918 37.7618 97.9612 37.7925 97.7615 37.7925H96.9319ZM95.2958 22.3995C95.2958 21.785 95.5186 21.3011 95.9641 20.9478C96.4096 20.5944 97.0087 20.4178 97.7615 20.4178C98.4221 20.4178 98.8983 20.556 99.1902 20.8326C99.4974 21.0937 99.651 21.4471 99.651 21.8926C99.651 22.461 99.436 22.9372 99.0058 23.3212C98.591 23.6899 97.9765 23.8743 97.1623 23.8743C95.918 23.8743 95.2958 23.3827 95.2958 22.3995ZM108.897 35.7647C108.897 35.4267 108.92 34.9889 108.966 34.4512C109.028 33.8982 109.082 33.3221 109.128 32.7229C109.189 32.1084 109.243 31.517 109.289 30.9486C109.35 30.3802 109.381 29.904 109.381 29.5199C109.381 29.1205 109.281 28.7672 109.082 28.4599C108.897 28.1373 108.528 27.976 107.975 27.976C107.438 27.976 106.992 28.1066 106.639 28.3677C106.286 28.6289 105.986 29.1051 105.74 29.7964C105.51 30.4877 105.318 31.4402 105.164 32.6538C105.011 33.8674 104.865 35.4267 104.726 37.3316C104.711 37.516 104.673 37.6389 104.611 37.7003C104.55 37.7618 104.419 37.7925 104.219 37.7925H103.39C102.914 37.7925 102.522 37.7464 102.215 37.6542C101.923 37.5467 101.685 37.4007 101.5 37.2164C101.331 37.032 101.208 36.8093 101.132 36.5481C101.07 36.2716 101.039 35.9567 101.039 35.6034C101.039 35.3729 101.047 35.0503 101.062 34.6355C101.093 34.2054 101.139 33.6216 101.201 32.8842C101.262 32.1315 101.331 31.1867 101.408 30.0499C101.5 28.8977 101.608 27.4767 101.731 25.7869C101.746 25.4489 101.784 25.2492 101.846 25.1878C101.892 25.1417 102.015 25.1186 102.215 25.1186H103.113C103.574 25.1186 103.951 25.1724 104.242 25.2799C104.55 25.3875 104.795 25.5334 104.98 25.7178C105.164 25.8867 105.295 26.0941 105.372 26.3399C105.448 26.5704 105.494 26.8085 105.51 27.0543C105.986 26.2401 106.531 25.6794 107.146 25.3721C107.76 25.0495 108.528 24.8882 109.45 24.8882C110.095 24.8882 110.656 24.9573 111.132 25.0956C111.609 25.2338 112 25.472 112.308 25.8099C112.63 26.1325 112.868 26.5627 113.022 27.1004C113.176 27.6227 113.252 28.2756 113.252 29.059C113.252 29.3048 113.237 29.6582 113.206 30.119C113.176 30.5799 113.137 31.0869 113.091 31.6399C113.045 32.1776 112.991 32.746 112.93 33.3451C112.884 33.9289 112.838 34.4742 112.792 34.9812C112.745 35.4881 112.707 35.9336 112.676 36.3177C112.646 36.7018 112.63 36.9552 112.63 37.0781C112.63 37.4161 112.592 37.6235 112.515 37.7003C112.438 37.7618 112.269 37.7925 112.008 37.7925H111.271C110.779 37.7925 110.38 37.7464 110.072 37.6542C109.765 37.562 109.527 37.4315 109.358 37.2625C109.189 37.0935 109.066 36.8861 108.989 36.6403C108.928 36.3792 108.897 36.0873 108.897 35.7647ZM126.252 35.926C126.252 36.0028 126.214 36.1564 126.137 36.3868C126.06 36.6173 125.937 36.8554 125.768 37.1012C125.599 37.347 125.384 37.562 125.123 37.7464C124.877 37.9307 124.578 38.0229 124.224 38.0229C123.809 38.0229 123.395 37.8847 122.98 37.6081C122.581 37.3316 122.181 36.9552 121.782 36.479C121.382 36.0028 120.975 35.4421 120.56 34.7968C120.161 34.1363 119.754 33.4219 119.339 32.6538C119.278 33.468 119.216 34.2668 119.155 35.0503C119.093 35.8338 119.032 36.5942 118.97 37.3316C118.955 37.516 118.917 37.6389 118.855 37.7003C118.794 37.7618 118.663 37.7925 118.463 37.7925H117.634C117.158 37.7925 116.766 37.7464 116.459 37.6542C116.151 37.5467 115.913 37.4007 115.744 37.2164C115.575 37.032 115.452 36.8016 115.376 36.5251C115.314 36.2332 115.283 35.9029 115.283 35.5342C115.283 35.3499 115.291 35.1579 115.306 34.9581C115.322 34.7584 115.345 34.4742 115.376 34.1055C115.406 33.7368 115.445 33.2529 115.491 32.6538C115.552 32.0547 115.621 31.2635 115.698 30.2803C115.775 29.2972 115.86 28.0912 115.952 26.6625C116.059 25.2185 116.174 23.4672 116.297 21.4086C116.313 21.0707 116.351 20.871 116.413 20.8095C116.459 20.7634 116.582 20.7404 116.781 20.7404H117.68C118.156 20.7404 118.548 20.7942 118.855 20.9017C119.162 21.0092 119.408 21.1552 119.593 21.3395C119.777 21.5239 119.9 21.7389 119.961 21.9847C120.038 22.2305 120.076 22.484 120.076 22.7452C120.076 22.8988 120.061 23.1599 120.03 23.5286C120.015 23.882 119.992 24.3198 119.961 24.8421C119.931 25.3491 119.884 25.9251 119.823 26.5704C119.777 27.2156 119.731 27.8915 119.685 28.5982L123.372 25.2338C123.51 25.1109 123.633 25.0265 123.74 24.9804C123.863 24.9343 123.955 24.9112 124.017 24.9112C124.186 24.9112 124.37 25.0188 124.57 25.2338C124.77 25.4489 124.954 25.7024 125.123 25.9943C125.307 26.2708 125.453 26.5627 125.561 26.8699C125.684 27.1618 125.745 27.3999 125.745 27.5843C125.745 28.0298 125.384 28.4983 124.662 28.9899C123.955 29.4815 122.88 30.0345 121.436 30.649C122.081 31.3711 122.696 32.0316 123.279 32.6308C123.863 33.2299 124.37 33.7599 124.8 34.2208C125.246 34.6816 125.599 35.058 125.86 35.3499C126.122 35.6418 126.252 35.8338 126.252 35.926Z" fill="#321575"/>
<g opacity="0.8">
<path d="M97.1187 10.4285C96.3845 9.92818 95.2217 9.82447 94.0092 10.8671C92.7966 9.82447 91.6336 9.92834 90.8996 10.4285C89.8154 11.1674 89.4793 12.7724 90.1343 14.0824C91.2559 16.3258 93.7029 17.1629 93.8065 17.1974C93.9373 17.241 94.081 17.241 94.2118 17.1974C94.3154 17.1629 96.7622 16.3257 97.8841 14.0824C98.5389 12.7723 98.2028 11.1673 97.1187 10.4285Z" fill="url(#paint0_linear_1154_144)"/>
<path d="M94.9966 16.6771C94.8929 16.6426 92.4461 15.8054 91.3243 13.562C90.7146 12.3427 90.9641 10.8681 91.8757 10.074C91.5038 10.1118 91.1716 10.2428 90.8987 10.4288C89.8145 11.1678 89.4783 12.7727 90.1333 14.0827C91.2549 16.3261 93.7019 17.1632 93.8055 17.1978C93.9363 17.2414 94.08 17.2414 94.2108 17.1978C94.2535 17.1835 94.6944 17.0326 95.2759 16.7037C95.1823 16.7148 95.0864 16.7071 94.9966 16.6771Z" fill="url(#paint1_linear_1154_144)"/>
</g>
<path d="M113.647 0.486498C112.672 -0.178103 111.127 -0.315879 109.516 1.06922C107.906 -0.315879 106.361 -0.177891 105.386 0.486498C103.945 1.46813 103.499 3.60013 104.369 5.34033C105.859 8.32054 109.109 9.43252 109.247 9.47845C109.421 9.53636 109.612 9.53636 109.786 9.47845C109.923 9.43252 113.174 8.32043 114.664 5.34033C115.534 3.60002 115.087 1.46791 113.647 0.486498Z" fill="url(#paint2_linear_1154_144)"/>
<path d="M110.829 8.78752C110.692 8.74159 107.441 7.6295 105.951 4.64941C105.141 3.02959 105.473 1.07079 106.684 0.0158691C106.19 0.0661438 105.748 0.240196 105.386 0.48722C103.945 1.46885 103.499 3.60085 104.369 5.34105C105.859 8.32126 109.109 9.43324 109.247 9.47917C109.421 9.53708 109.612 9.53708 109.786 9.47917C109.842 9.46018 110.428 9.25972 111.2 8.82283C111.076 8.83758 110.949 8.82729 110.829 8.78752Z" fill="url(#paint3_linear_1154_144)"/>
<g opacity="0.6">
<path d="M83.2393 18.3849C82.7168 18.0288 81.8892 17.9551 81.0262 18.6971C80.1633 17.9551 79.3356 18.029 78.8132 18.3849C78.0415 18.9109 77.8023 20.0531 78.2684 20.9855C79.0667 22.5822 80.8083 23.1779 80.882 23.2025C80.9751 23.2336 81.0774 23.2336 81.1705 23.2025C81.2442 23.1779 82.9857 22.5821 83.784 20.9855C84.2501 20.0531 84.0108 18.9108 83.2393 18.3849Z" fill="url(#paint4_linear_1154_144)"/>
<path d="M81.7924 22.833C81.7186 22.8084 79.9772 22.2126 79.1788 20.6159C78.7435 19.7454 78.9234 18.6919 79.5774 18.1279C79.2848 18.1446 79.0241 18.2422 78.8132 18.3859C78.0415 18.9118 77.8023 20.0541 78.2684 20.9865C79.0667 22.5832 80.8083 23.1789 80.882 23.2035C80.9751 23.2346 81.0774 23.2346 81.1705 23.2035C81.2008 23.1934 81.5116 23.0871 81.9228 22.8552C81.8785 22.8538 81.8344 22.8471 81.7924 22.833Z" fill="url(#paint5_linear_1154_144)"/>
</g>
<path d="M17.86 53V45.95H18.79V52.2H22.3V53H17.86ZM23.2483 53V47.97H24.1583V53H23.2483ZM23.1683 46.87V45.89H24.2483V46.87H23.1683ZM25.6799 53V49.16C25.6799 48.9667 25.6733 48.77 25.6599 48.57C25.6466 48.37 25.6266 48.17 25.5999 47.97H26.4799L26.5799 49.05H26.4599C26.6133 48.67 26.8499 48.38 27.1699 48.18C27.4899 47.98 27.8633 47.88 28.2899 47.88C28.8833 47.88 29.3299 48.0433 29.6299 48.37C29.9299 48.69 30.0799 49.19 30.0799 49.87V53H29.1699V49.92C29.1699 49.46 29.0799 49.13 28.8999 48.93C28.7199 48.7233 28.4399 48.62 28.0599 48.62C27.6066 48.62 27.2466 48.7567 26.9799 49.03C26.7199 49.3033 26.5899 49.6733 26.5899 50.14V53H25.6799ZM31.5686 53V45.64H32.4786V50.19H32.4986L34.7686 47.97H35.8986L33.1986 50.61L33.2086 50.18L36.1386 53H34.9786L32.4986 50.66H32.4786V53H31.5686ZM40.7997 53L38.9197 47.97H39.8697L41.3897 52.28H41.1297L42.6897 47.97H43.4297L44.9797 52.28H44.7297L46.2597 47.97H47.1697L45.2797 53H44.4197L42.8197 48.62H43.2597L41.6697 53H40.7997ZM48.1604 53V47.97H49.0704V53H48.1604ZM48.0804 46.87V45.89H49.1604V46.87H48.0804ZM52.472 53.09C51.9454 53.09 51.5454 52.9467 51.272 52.66C51.0054 52.3667 50.872 51.9267 50.872 51.34V48.67H49.892V47.97H50.872V46.62L51.782 46.37V47.97H53.202V48.67H51.782V51.26C51.782 51.6467 51.8487 51.9233 51.982 52.09C52.122 52.25 52.322 52.33 52.582 52.33C52.7154 52.33 52.8287 52.32 52.922 52.3C53.022 52.2733 53.112 52.2433 53.192 52.21V52.96C53.092 53 52.9754 53.03 52.842 53.05C52.7154 53.0767 52.592 53.09 52.472 53.09ZM54.1565 53V45.64H55.0665V49.06H54.9365C55.0832 48.6733 55.3198 48.38 55.6465 48.18C55.9732 47.98 56.3498 47.88 56.7765 47.88C57.3832 47.88 57.8298 48.0433 58.1165 48.37C58.4098 48.6967 58.5565 49.19 58.5565 49.85V53H57.6465V49.9C57.6465 49.4533 57.5598 49.13 57.3865 48.93C57.2132 48.7233 56.9298 48.62 56.5365 48.62C56.0965 48.62 55.7398 48.7567 55.4665 49.03C55.1998 49.3033 55.0665 49.6667 55.0665 50.12V53H54.1565ZM62.9619 53V48.67H61.9819V47.97H63.2119L62.9619 48.2V47.39C62.9619 46.8033 63.1085 46.36 63.4019 46.06C63.6952 45.7533 64.1219 45.6 64.6819 45.6C64.8152 45.6 64.9552 45.61 65.1019 45.63C65.2552 45.65 65.3819 45.6833 65.4819 45.73V46.47C65.4019 46.4367 65.3019 46.41 65.1819 46.39C65.0619 46.37 64.9452 46.36 64.8319 46.36C64.6319 46.36 64.4585 46.4 64.3119 46.48C64.1652 46.56 64.0552 46.68 63.9819 46.84C63.9085 46.9933 63.8719 47.1967 63.8719 47.45V48.16L63.7319 47.97H65.2619V48.67H63.8719V53H62.9619ZM67.9191 53.09C67.3125 53.09 66.8558 52.9267 66.5491 52.6C66.2491 52.2733 66.0991 51.77 66.0991 51.09V47.97H67.0091V51.07C67.0091 51.51 67.0991 51.8333 67.2791 52.04C67.4591 52.2467 67.7391 52.35 68.1191 52.35C68.5325 52.35 68.8658 52.2133 69.1191 51.94C69.3791 51.66 69.5091 51.29 69.5091 50.83V47.97H70.4191V53H69.5391V51.89H69.6691C69.5291 52.27 69.3058 52.5667 68.9991 52.78C68.6925 52.9867 68.3325 53.09 67.9191 53.09ZM73.8295 53.09C73.3028 53.09 72.9028 52.9467 72.6295 52.66C72.3628 52.3667 72.2295 51.9267 72.2295 51.34V48.67H71.2495V47.97H72.2295V46.62L73.1395 46.37V47.97H74.5595V48.67H73.1395V51.26C73.1395 51.6467 73.2061 51.9233 73.3395 52.09C73.4795 52.25 73.6795 52.33 73.9395 52.33C74.0728 52.33 74.1861 52.32 74.2795 52.3C74.3795 52.2733 74.4695 52.2433 74.5495 52.21V52.96C74.4495 53 74.3328 53.03 74.1995 53.05C74.0728 53.0767 73.9495 53.09 73.8295 53.09ZM77.3039 53.09C76.6972 53.09 76.2406 52.9267 75.9339 52.6C75.6339 52.2733 75.4839 51.77 75.4839 51.09V47.97H76.3939V51.07C76.3939 51.51 76.4839 51.8333 76.6639 52.04C76.8439 52.2467 77.1239 52.35 77.5039 52.35C77.9172 52.35 78.2506 52.2133 78.5039 51.94C78.7639 51.66 78.8939 51.29 78.8939 50.83V47.97H79.8039V53H78.9239V51.89H79.0539C78.9139 52.27 78.6906 52.5667 78.3839 52.78C78.0772 52.9867 77.7172 53.09 77.3039 53.09ZM81.3242 53V49.2C81.3242 49 81.3176 48.7967 81.3042 48.59C81.2976 48.3767 81.2809 48.17 81.2542 47.97H82.1342L82.2442 49.23L82.0942 49.24C82.1609 48.9333 82.2742 48.68 82.4342 48.48C82.6009 48.2733 82.7976 48.1233 83.0242 48.03C83.2576 47.93 83.4976 47.88 83.7442 47.88C83.8509 47.88 83.9409 47.8833 84.0142 47.89C84.0876 47.8967 84.1609 47.9133 84.2342 47.94L84.2142 48.75C84.1142 48.71 84.0209 48.6867 83.9342 48.68C83.8542 48.6667 83.7542 48.66 83.6342 48.66C83.3409 48.66 83.0876 48.7267 82.8742 48.86C82.6676 48.9933 82.5076 49.17 82.3942 49.39C82.2876 49.61 82.2342 49.8467 82.2342 50.1V53H81.3242ZM87.257 53.09C86.457 53.09 85.8237 52.86 85.357 52.4C84.897 51.94 84.667 51.3067 84.667 50.5C84.667 49.9667 84.767 49.5067 84.967 49.12C85.1737 48.7267 85.457 48.4233 85.817 48.21C86.177 47.99 86.597 47.88 87.077 47.88C87.537 47.88 87.927 47.98 88.247 48.18C88.567 48.3733 88.8104 48.65 88.977 49.01C89.1437 49.37 89.227 49.7967 89.227 50.29V50.59H85.377V50.05H88.607L88.437 50.18C88.437 49.66 88.3204 49.2567 88.087 48.97C87.8604 48.6833 87.5237 48.54 87.077 48.54C86.5904 48.54 86.2137 48.71 85.947 49.05C85.6804 49.3833 85.547 49.84 85.547 50.42V50.51C85.547 51.1233 85.697 51.5867 85.997 51.9C86.3037 52.2133 86.727 52.37 87.267 52.37C87.567 52.37 87.847 52.3267 88.107 52.24C88.367 52.1533 88.617 52.01 88.857 51.81L89.157 52.44C88.9304 52.6467 88.647 52.8067 88.307 52.92C87.9737 53.0333 87.6237 53.09 87.257 53.09ZM93.053 55.16V49.16C93.053 48.9667 93.0463 48.77 93.033 48.57C93.0196 48.37 92.9996 48.17 92.973 47.97H93.853L93.963 49.13H93.853C93.953 48.7433 94.1663 48.44 94.493 48.22C94.8196 47.9933 95.2096 47.88 95.663 47.88C96.1096 47.88 96.4996 47.9833 96.833 48.19C97.1663 48.3967 97.423 48.6967 97.603 49.09C97.7896 49.4767 97.883 49.94 97.883 50.48C97.883 51.02 97.7896 51.4867 97.603 51.88C97.423 52.2733 97.1663 52.5733 96.833 52.78C96.4996 52.9867 96.1096 53.09 95.663 53.09C95.2163 53.09 94.8296 52.98 94.503 52.76C94.183 52.5333 93.9663 52.23 93.853 51.85H93.963V55.16H93.053ZM95.453 52.37C95.913 52.37 96.2796 52.21 96.553 51.89C96.8263 51.57 96.963 51.1 96.963 50.48C96.963 49.86 96.8263 49.3933 96.553 49.08C96.2796 48.7667 95.913 48.61 95.453 48.61C94.993 48.61 94.6263 48.7667 94.353 49.08C94.0863 49.3933 93.953 49.86 93.953 50.48C93.953 51.1 94.0863 51.57 94.353 51.89C94.6263 52.21 94.993 52.37 95.453 52.37ZM101.028 53.09C100.588 53.09 100.201 52.9867 99.8677 52.78C99.5343 52.5733 99.2743 52.2733 99.0877 51.88C98.901 51.4867 98.8077 51.02 98.8077 50.48C98.8077 49.94 98.901 49.4767 99.0877 49.09C99.2743 48.6967 99.5343 48.3967 99.8677 48.19C100.201 47.9833 100.588 47.88 101.028 47.88C101.474 47.88 101.861 47.9933 102.188 48.22C102.521 48.44 102.741 48.7433 102.848 49.13H102.728L102.838 47.97H103.718C103.698 48.17 103.678 48.37 103.658 48.57C103.644 48.77 103.638 48.9667 103.638 49.16V53H102.728V51.85H102.838C102.731 52.23 102.511 52.5333 102.178 52.76C101.851 52.98 101.468 53.09 101.028 53.09ZM101.238 52.37C101.691 52.37 102.054 52.21 102.328 51.89C102.601 51.57 102.738 51.1 102.738 50.48C102.738 49.86 102.601 49.3933 102.328 49.08C102.054 48.7667 101.691 48.61 101.238 48.61C100.784 48.61 100.418 48.7667 100.138 49.08C99.8643 49.3933 99.7277 49.86 99.7277 50.48C99.7277 51.1 99.8643 51.57 100.138 51.89C100.411 52.21 100.778 52.37 101.238 52.37ZM105.152 53V49.2C105.152 49 105.146 48.7967 105.132 48.59C105.126 48.3767 105.109 48.17 105.082 47.97H105.962L106.072 49.23L105.922 49.24C105.989 48.9333 106.102 48.68 106.262 48.48C106.429 48.2733 106.626 48.1233 106.852 48.03C107.086 47.93 107.326 47.88 107.572 47.88C107.679 47.88 107.769 47.8833 107.842 47.89C107.916 47.8967 107.989 47.9133 108.062 47.94L108.042 48.75C107.942 48.71 107.849 48.6867 107.762 48.68C107.682 48.6667 107.582 48.66 107.462 48.66C107.169 48.66 106.916 48.7267 106.702 48.86C106.496 48.9933 106.336 49.17 106.222 49.39C106.116 49.61 106.062 49.8467 106.062 50.1V53H105.152ZM111.017 53.09C110.49 53.09 110.09 52.9467 109.817 52.66C109.55 52.3667 109.417 51.9267 109.417 51.34V48.67H108.437V47.97H109.417V46.62L110.327 46.37V47.97H111.747V48.67H110.327V51.26C110.327 51.6467 110.394 51.9233 110.527 52.09C110.667 52.25 110.867 52.33 111.127 52.33C111.26 52.33 111.374 52.32 111.467 52.3C111.567 52.2733 111.657 52.2433 111.737 52.21V52.96C111.637 53 111.52 53.03 111.387 53.05C111.26 53.0767 111.137 53.09 111.017 53.09ZM112.701 53V49.16C112.701 48.9667 112.695 48.77 112.681 48.57C112.668 48.37 112.648 48.17 112.621 47.97H113.501L113.601 49.05H113.481C113.635 48.67 113.871 48.38 114.191 48.18C114.511 47.98 114.885 47.88 115.311 47.88C115.905 47.88 116.351 48.0433 116.651 48.37C116.951 48.69 117.101 49.19 117.101 49.87V53H116.191V49.92C116.191 49.46 116.101 49.13 115.921 48.93C115.741 48.7233 115.461 48.62 115.081 48.62C114.628 48.62 114.268 48.7567 114.001 49.03C113.741 49.3033 113.611 49.6733 113.611 50.14V53H112.701ZM120.88 53.09C120.08 53.09 119.447 52.86 118.98 52.4C118.52 51.94 118.29 51.3067 118.29 50.5C118.29 49.9667 118.39 49.5067 118.59 49.12C118.797 48.7267 119.08 48.4233 119.44 48.21C119.8 47.99 120.22 47.88 120.7 47.88C121.16 47.88 121.55 47.98 121.87 48.18C122.19 48.3733 122.433 48.65 122.6 49.01C122.767 49.37 122.85 49.7967 122.85 50.29V50.59H119V50.05H122.23L122.06 50.18C122.06 49.66 121.943 49.2567 121.71 48.97C121.483 48.6833 121.147 48.54 120.7 48.54C120.213 48.54 119.837 48.71 119.57 49.05C119.303 49.3833 119.17 49.84 119.17 50.42V50.51C119.17 51.1233 119.32 51.5867 119.62 51.9C119.927 52.2133 120.35 52.37 120.89 52.37C121.19 52.37 121.47 52.3267 121.73 52.24C121.99 52.1533 122.24 52.01 122.48 51.81L122.78 52.44C122.553 52.6467 122.27 52.8067 121.93 52.92C121.597 53.0333 121.247 53.09 120.88 53.09ZM124.029 53V49.2C124.029 49 124.023 48.7967 124.009 48.59C124.003 48.3767 123.986 48.17 123.959 47.97H124.839L124.949 49.23L124.799 49.24C124.866 48.9333 124.979 48.68 125.139 48.48C125.306 48.2733 125.503 48.1233 125.729 48.03C125.963 47.93 126.203 47.88 126.449 47.88C126.556 47.88 126.646 47.8833 126.719 47.89C126.793 47.8967 126.866 47.9133 126.939 47.94L126.919 48.75C126.819 48.71 126.726 48.6867 126.639 48.68C126.559 48.6667 126.459 48.66 126.339 48.66C126.046 48.66 125.793 48.7267 125.579 48.86C125.373 48.9933 125.213 49.17 125.099 49.39C124.993 49.61 124.939 49.8467 124.939 50.1V53H124.029Z" fill="#321575"/>
</svg>
