<svg width="149" height="149" viewBox="0 0 149 149" fill="none" xmlns="http://www.w3.org/2000/svg">
    <defs>
        <linearGradient id="paint0_linear_813_503" x1="103.462" y1="40.1814" x2="111.36" y2="48.0807" gradientUnits="userSpaceOnUse">
            <stop offset="0.262" stop-color="#F5F5F5"/>
            <stop offset="0.466" stop-color="#EAEAEA"/>
            <stop offset="0.822" stop-color="#CDCDCD"/>
            <stop offset="0.989" stop-color="#BDBDBD"/>
        </linearGradient>
        <linearGradient id="paint1_linear_813_503" x1="16.1955" y1="127.437" x2="24.1135" y2="135.354" gradientUnits="userSpaceOnUse">
            <stop offset="0.262" stop-color="#F5F5F5"/>
            <stop offset="0.466" stop-color="#EAEAEA"/>
            <stop offset="0.822" stop-color="#CDCDCD"/>
            <stop offset="0.989" stop-color="#BDBDBD"/>
        </linearGradient>
        <linearGradient id="paint2_linear_813_503" x1="79.6058" y1="69.9683" x2="119.88" y2="29.6941" gradientUnits="userSpaceOnUse">
            <stop stop-color="#FADA80" stop-opacity="0"/>
            <stop offset="1" stop-color="#FADA80"/>
        </linearGradient>
        <radialGradient id="paint3_radial_813_503" cx="0" cy="0" r="1" gradientUnits="userSpaceOnUse" gradientTransform="translate(88.3719 26.8604) rotate(2.144) scale(17.2095 17.2095)">
            <stop stop-color="#FFEB3B"/>
            <stop offset="1" stop-color="#FBC02D"/>
        </radialGradient>
        <radialGradient id="paint4_radial_813_503" cx="0" cy="0" r="1" gradientUnits="userSpaceOnUse" gradientTransform="translate(114.388 75.114) rotate(-20.089) scale(13.8326 13.8326)">
            <stop stop-color="#FFEB3B"/>
            <stop offset="1" stop-color="#FBC02D"/>
        </radialGradient>
        <radialGradient id="paint5_radial_813_503" cx="0" cy="0" r="1" gradientUnits="userSpaceOnUse" gradientTransform="translate(125.75 22.1616) rotate(104.711) scale(18.6577 20.1691)">
            <stop offset="0.325" stop-color="#FFEB3B"/>
            <stop offset="1" stop-color="#FBC02D"/>
        </radialGradient>
        <radialGradient id="paint6_radial_813_503" cx="0" cy="0" r="1" gradientUnits="userSpaceOnUse" gradientTransform="translate(107.981 81.5876) rotate(30.6965) scale(109.109 65.3884)">
            <stop stop-color="#FFEE58" stop-opacity="0"/>
            <stop offset="1" stop-color="#FDD835"/>
        </radialGradient>
    </defs>
    <path d="M12.5722 144.216L5.3667 136.998L111.564 30.801L118.77 38.0066L12.5722 144.216Z" fill="#FD484F"/>
<path d="M116.453 33.1295C113.834 30.5104 111.576 30.8014 111.576 30.8014L92.811 49.5661C93.9169 49.3216 95.8609 50.2645 97.5953 51.9873C99.3181 53.7101 100.261 55.6541 100.017 56.7716L118.781 38.0069C118.77 38.0069 119.072 35.7603 116.453 33.1295Z" fill="url(#paint0_linear_813_503)"/>
<path d="M29.2179 120.364C26.5988 117.745 24.3405 118.036 24.3405 118.036L5.51758 136.847C6.62344 136.603 8.62563 137.499 10.3601 139.222C12.0829 140.945 12.9792 142.959 12.7348 144.064L31.546 125.242C31.546 125.242 31.837 122.983 29.2179 120.364Z" fill="url(#paint1_linear_813_503)"/>
<path d="M12.6839 144.106C13.5658 143.224 12.6666 140.895 10.6754 138.904C8.68425 136.913 6.35518 136.014 5.47328 136.896C4.59138 137.778 5.49062 140.107 7.48178 142.098C9.47293 144.089 11.802 144.988 12.6839 144.106Z" fill="#EE2A7B"/>
<path opacity="0.85" d="M111.541 30.8244L32.4542 109.922C31.5695 110.807 32.4659 113.135 34.4564 115.114C36.447 117.105 38.7751 118.001 39.6481 117.116L118.746 38.0183C118.746 38.0183 119.235 35.8298 116.441 33.1176C113.648 30.4053 111.541 30.8244 111.541 30.8244Z" fill="url(#paint2_linear_813_503)"/>
<path opacity="0.22" d="M84.4996 57.8655L5.41321 136.964C4.52853 137.848 5.42485 140.176 7.4154 142.155C9.40595 144.146 11.7341 145.042 12.6071 144.158L91.7168 65.0711C91.7168 65.0711 92.2057 62.8827 89.412 60.1704C86.6066 57.4698 84.4996 57.8655 84.4996 57.8655Z" fill="#15162D"/>
<path d="M79.587 21.9072L86.548 14.9693C86.9322 14.5852 87.5957 14.8995 87.5375 15.4466L86.6412 23.5834C86.6062 23.8977 86.8274 24.1887 87.1534 24.2236L97.1177 25.411C97.6998 25.4808 97.8278 26.2724 97.2807 26.5168L86.8973 31.1615C86.7459 31.2313 86.6295 31.371 86.583 31.534L83.5797 41.8359C83.44 42.3365 82.7648 42.4063 82.5204 41.9523L77.8758 33.5129C77.8209 33.4147 77.7392 33.3341 77.6403 33.2805C77.5414 33.2269 77.4293 33.2025 77.317 33.2102L68.4003 33.9319C68.2817 33.942 68.1628 33.9152 68.06 33.8552C67.9571 33.7952 67.8753 33.7049 67.8257 33.5967C67.776 33.4885 67.7609 33.3676 67.7825 33.2505C67.8041 33.1334 67.8613 33.0259 67.9463 32.9425L73.8598 27.1804C74.0344 27.0174 74.0809 26.7497 73.9878 26.5285L70.8565 19.3695C70.647 18.8806 71.1475 18.38 71.6364 18.6129L78.9584 22.0352C79.1563 22.1283 79.4123 22.0818 79.587 21.9072Z" fill="url(#paint3_radial_813_503)"/>
<path d="M104.87 73.6385L110.387 76.1878C110.527 76.2576 110.69 76.2344 110.807 76.1412L116.336 71.9622C116.627 71.7411 117.023 71.9739 116.999 72.3231L116.476 79.1911C116.464 79.3424 116.534 79.4937 116.673 79.5752L121.947 82.8346C122.261 83.0325 122.179 83.5214 121.807 83.5912L115.195 84.9532C115.032 84.9881 114.904 85.1045 114.869 85.2675L113.461 91.4952C113.379 91.8677 112.879 91.9376 112.692 91.6L109.759 86.2336C109.723 86.1662 109.669 86.1099 109.604 86.0709C109.538 86.0318 109.463 86.0116 109.386 86.0125L102.449 86.2336C102.088 86.2453 101.89 85.8262 102.111 85.5468L106.581 80.2038C106.686 80.0874 106.709 79.9244 106.651 79.7731L104.299 74.1623C104.171 73.8247 104.532 73.4755 104.87 73.6385Z" fill="url(#paint4_radial_813_503)"/>
<path d="M127.639 13.5612L137.452 9.20761C137.941 8.98643 138.372 9.47534 138.116 9.94096L133.262 18.881C133.145 19.0905 133.169 19.3466 133.32 19.5096L143.831 29.7067C144.146 30.0327 143.878 30.6147 143.401 30.638L130.503 28.3681C130.305 28.3797 130.119 28.4961 130.014 28.6824L123.228 41.1029C122.971 41.5569 122.32 41.5103 122.215 41.0331L120.888 28.9385C120.862 28.835 120.804 28.7423 120.723 28.6733C120.641 28.6044 120.54 28.5628 120.434 28.5543L109.783 26.8199C109.329 26.785 109.154 26.2378 109.503 25.9003L118.408 19.0556C118.536 18.9275 118.606 18.7529 118.583 18.5783L116.988 5.09847C116.942 4.58628 117.582 4.2487 117.943 4.59792L127.046 13.4681C127.197 13.6078 127.43 13.6427 127.639 13.5612Z" fill="url(#paint5_radial_813_503)"/>
<path d="M112.089 31.2782C107.735 32.3957 103.323 33.3618 98.8182 33.7343C94.3133 34.1418 89.7385 33.8158 85.2918 33.0126C80.8451 32.1861 76.4798 31.1501 72.0797 30.3353C67.6795 29.5204 63.2561 28.8686 58.8094 28.3564C56.586 28.1003 54.351 27.914 52.1276 27.6929C49.9508 27.4833 47.7973 27.5415 45.7486 28.0188C43.7348 28.531 41.8606 29.4972 40.65 31.0803C39.4277 32.6401 38.8457 34.6656 38.8457 36.7493C38.8224 40.9515 40.5103 45.1422 42.6522 48.9254C44.8057 52.7318 47.6344 56.1891 50.463 59.6464C56.0971 66.5842 62.1851 73.1844 68.2266 79.8312C71.2532 83.1604 74.2798 86.478 77.2598 89.8538C80.263 93.2063 83.1615 96.6636 85.932 100.226C88.7141 103.776 91.3566 107.489 93.5101 111.517C94.0455 112.495 94.6392 113.577 94.8138 114.881C94.872 115.545 94.8022 116.278 94.4297 116.93C94.0572 117.582 93.4402 117.989 92.8466 118.257C91.6243 118.746 90.4137 118.781 89.2496 118.723C88.0855 118.653 86.9448 118.466 85.8273 118.21C81.3805 117.128 77.2248 115.277 73.2205 113.193C71.2183 112.146 69.2626 111.028 67.3419 109.852C65.4329 108.665 63.5587 107.408 61.7195 106.127C65.5376 108.502 69.4489 110.714 73.4882 112.635C77.5275 114.544 81.7298 116.208 86.0484 117.081C87.131 117.279 88.2136 117.442 89.2845 117.477C90.3555 117.512 91.438 117.419 92.2994 117.046C92.7185 116.848 93.0677 116.592 93.2423 116.243C93.4169 115.906 93.4635 115.475 93.4169 115.021C93.2773 114.09 92.7767 113.158 92.2063 112.192C90.0295 108.351 87.3638 104.765 84.5235 101.32C73.1623 87.5373 60.2179 75.012 48.6704 61.1131C45.8417 57.6093 42.9781 54.0472 40.7315 50.0079C38.5198 46.0036 36.6922 41.5568 36.7504 36.7027C36.7737 34.3047 37.4721 31.7787 39.0552 29.7998C40.6267 27.786 42.9781 26.6219 45.2946 26.0632C47.6344 25.551 50.0323 25.4928 52.3255 25.7605C54.5605 26.0399 56.8072 26.2727 59.0422 26.587C63.5122 27.2156 67.9589 27.9839 72.3707 28.9035C76.7825 29.8347 81.1477 30.9522 85.513 31.8951C89.8666 32.8497 94.3133 33.3502 98.7833 33.1174C103.242 32.9079 107.677 32.1512 112.089 31.2782Z" fill="#FDD835"/>
<path d="M78.8998 41.4875C65.8041 44.5373 50.776 35.6672 36.9004 37.227C31.6039 37.9255 29.4271 44.258 34.5141 54.2922C44.5017 71.4854 59.0758 81.636 64.4538 87.9336C57.2249 83.8827 42.3715 73.2082 32.0463 63.1623C16.506 48.2623 19.3813 29.6373 33.7923 29.6955C38.6232 29.2299 47.9706 31.558 51.8819 32.9898C55.7349 34.538 68.8539 40.2536 78.8998 41.4875Z" fill="url(#paint6_radial_813_503)"/>

</svg>
