<svg width="25" height="25" viewBox="0 0 25 25" fill="none" xmlns="http://www.w3.org/2000/svg">
<path d="M19.7122 8.47059C19.7122 4.89412 16.8181 2 13.2416 2C9.66511 2 6.771 4.89412 6.771 8.47059C6.771 11.6471 9.05335 14.2706 12.0651 14.8235V17.2941H9.71217V19.6471H12.0651V22H14.4181V19.6471H16.771V17.2941H14.4181V14.8235C17.4298 14.2706 19.7122 11.6471 19.7122 8.47059ZM9.12394 8.47059C9.12394 6.2 10.971 4.35294 13.2416 4.35294C15.5122 4.35294 17.3592 6.2 17.3592 8.47059C17.3592 10.7412 15.5122 12.5882 13.2416 12.5882C10.971 12.5882 9.12394 10.7412 9.12394 8.47059Z" fill="#FD484F"/>
</svg>
